<svg width="959" height="1457" viewBox="0 0 959 1457" fill="none" xmlns="http://www.w3.org/2000/svg">
<path d="M482 804L477 799L472 804M482 812L477 817L472 812" stroke="black" stroke-width="1.5" stroke-linecap="round" stroke-linejoin="round"/>
<path d="M901.177 231.751C952.858 186.969 1033.1 204.729 1061.06 267.138L1372.12 961.522C1406.4 1038.04 1338.85 1120.93 1256.99 1102.81L370.9 906.694C289.041 888.576 262.785 784.921 326.147 730.018L901.177 231.751Z" fill="url(#paint0_radial_503_2)"/>
<path d="M901.177 231.751C952.858 186.969 1033.1 204.729 1061.06 267.138L1372.12 961.522C1406.4 1038.04 1338.85 1120.93 1256.99 1102.81L370.9 906.694C289.041 888.576 262.785 784.921 326.147 730.018L901.177 231.751Z" fill="url(#paint1_radial_503_2)"/>
<path d="M1335.38 820.444C1340.76 888.616 1278.86 942.675 1212.03 928.153L468.512 766.585C386.584 748.782 359.929 645.229 423.08 590.082L1106.66 -6.85888C1169.81 -62.0057 1268.83 -21.6447 1275.44 61.9352L1335.38 820.444Z" fill="url(#paint2_radial_503_2)"/>
<path d="M1335.38 820.444C1340.76 888.616 1278.86 942.675 1212.03 928.153L468.512 766.585C386.584 748.782 359.929 645.229 423.08 590.082L1106.66 -6.85888C1169.81 -62.0057 1268.83 -21.6447 1275.44 61.9352L1335.38 820.444Z" fill="url(#paint3_radial_503_2)"/>
<line x1="802.488" y1="640.027" x2="802.488" y2="311.003" stroke="#EFF4FA"/>
<line x1="625.488" y1="684.027" x2="625.488" y2="355.003" stroke="#EFF4FA"/>
<line x1="528.488" y1="721.027" x2="528.5" y2="364.015" stroke="#EFF4FA"/>
<line x1="712.494" y1="767.017" x2="712.494" y2="311" stroke="#EFF4FA"/>
<line x1="436.001" y1="405.515" x2="946.001" y2="406.529" stroke="#EFF4FA"/>
<line x1="436.001" y1="500.515" x2="946.001" y2="501.529" stroke="#EFF4FA"/>
<line x1="436.001" y1="632.515" x2="946.001" y2="633.529" stroke="#EFF4FA"/>
<path d="M922.249 326.575C973.632 283.345 1052.05 300.7 1080.39 361.576L1281.46 793.466C1317.13 870.094 1249.47 954.372 1166.94 936.106L601.333 810.921C518.806 792.655 493.03 687.697 557.708 633.281L922.249 326.575Z" fill="white"/>
<path d="M543.561 499.117C570.586 475.516 612.888 486.462 625.075 520.209L700.18 728.178C714.108 766.745 679.134 805.146 639.436 794.875L397.784 732.349C358.086 722.077 346.127 671.533 377.013 644.561L543.561 499.117Z" fill="#1B76FF" fill-opacity="0.75"/>
<defs>
<radialGradient id="paint0_radial_503_2" cx="0" cy="0" r="1" gradientUnits="userSpaceOnUse" gradientTransform="translate(1050.19 284.112) rotate(106.565) scale(1051.93 1354.1)">
<stop stop-color="white"/>
<stop offset="0.324546" stop-color="#E1F8FF"/>
<stop offset="0.663047" stop-color="#E1F8FF"/>
</radialGradient>
<radialGradient id="paint1_radial_503_2" cx="0" cy="0" r="1" gradientUnits="userSpaceOnUse" gradientTransform="translate(1050.19 284.112) rotate(106.565) scale(1051.93 1354.1)">
<stop offset="0.215199" stop-color="white"/>
<stop offset="0.489967" stop-color="#79B4FF" stop-opacity="0.15"/>
<stop offset="0.732426" stop-color="white"/>
</radialGradient>
<radialGradient id="paint2_radial_503_2" cx="0" cy="0" r="1" gradientUnits="userSpaceOnUse" gradientTransform="translate(1204.82 909.331) rotate(-127.045) scale(1051.93 1354.1)">
<stop stop-color="white"/>
<stop offset="0.324546" stop-color="#E1F8FF"/>
<stop offset="0.663047" stop-color="#E1F8FF"/>
</radialGradient>
<radialGradient id="paint3_radial_503_2" cx="0" cy="0" r="1" gradientUnits="userSpaceOnUse" gradientTransform="translate(1204.82 909.331) rotate(-127.045) scale(1051.93 1354.1)">
<stop offset="0.44818" stop-color="#79B4FF" stop-opacity="0.15"/>
<stop offset="0.455808" stop-color="#79B4FF" stop-opacity="0.15"/>
<stop offset="0.732426" stop-color="white"/>
</radialGradient>
</defs>
</svg>
