<svg width="652" height="1656" viewBox="0 0 652 1656" fill="none" xmlns="http://www.w3.org/2000/svg">
<path d="M470.083 727.269C528.261 763.21 535.286 845.095 484.08 890.421L-85.6553 1394.73C-148.434 1450.3 -247.722 1410.61 -254.888 1327.07L-332.46 422.86C-339.627 339.326 -248.551 283.301 -177.224 327.366L470.083 727.269Z" fill="url(#paint0_radial_190_28)"/>
<path d="M470.083 727.269C528.261 763.21 535.286 845.095 484.08 890.421L-85.6553 1394.73C-148.434 1450.3 -247.722 1410.61 -254.888 1327.07L-332.46 422.86C-339.627 339.326 -248.551 283.301 -177.224 327.366L470.083 727.269Z" fill="url(#paint1_radial_190_28)"/>
<path d="M-87.1815 295.09C-105.5 249.043 -79.1029 197.396 -31.0526 185.271L173.751 133.59C242.093 116.345 298.908 187.656 266.83 250.417L140.105 498.36C108.028 561.122 16.9518 556.844 -9.10249 491.353L-87.1815 295.09Z" fill="#1B76FF" fill-opacity="0.61"/>
<path d="M-80.1164 440.079C-98.3233 394.313 -72.087 342.98 -24.3296 330.929L180.474 279.249C248.399 262.109 304.868 332.984 272.986 395.363L146.261 643.306C114.379 705.685 23.8581 701.434 -2.03732 636.342L-80.1164 440.079Z" stroke="#6E6868"/>
<path d="M-80.1164 440.079C-98.3233 394.313 -72.087 342.98 -24.3296 330.929L180.474 279.249C248.399 262.109 304.868 332.984 272.986 395.363L146.261 643.306C114.379 705.685 23.8581 701.434 -2.03732 636.342L-80.1164 440.079Z" stroke="#6E6868"/>
<path d="M150.284 506.442C146.139 515.693 134.202 518.254 126.627 511.517L102.188 489.781C93.008 481.617 96.9981 466.483 109.01 463.907L146.822 455.795C158.834 453.218 168.681 465.383 163.657 476.594L150.284 506.442Z" fill="#1B76FF" fill-opacity="0.79"/>
<defs>
<radialGradient id="paint0_radial_190_28" cx="0" cy="0" r="1" gradientUnits="userSpaceOnUse" gradientTransform="translate(464.633 885.117) rotate(179.181) scale(1051.93 1354.1)">
<stop stop-color="white" stop-opacity="0.63"/>
<stop offset="0.324546" stop-color="#E1F8FF" stop-opacity="0"/>
<stop offset="0.663047" stop-color="#E1F8FF" stop-opacity="0"/>
</radialGradient>
<radialGradient id="paint1_radial_190_28" cx="0" cy="0" r="1" gradientUnits="userSpaceOnUse" gradientTransform="translate(675.5 765.5) rotate(173.913) scale(1269.85 1634.62)">
<stop stop-color="white"/>
<stop offset="0.177863" stop-color="white"/>
<stop offset="0.555594" stop-color="#E1F8FF" stop-opacity="0.07"/>
<stop offset="0.665091" stop-color="#79B4FF" stop-opacity="0.15"/>
</radialGradient>
</defs>
</svg>
