<svg width="36" height="36" viewBox="0 0 36 36" fill="none" xmlns="http://www.w3.org/2000/svg">
<path d="M13.0078 18.9316C13.7695 19.3184 14.4551 19.793 15.0645 20.3555C15.6738 20.918 16.2012 21.5508 16.6465 22.2539C17.0918 22.957 17.4258 23.707 17.6484 24.5039C17.8711 25.3008 17.9883 26.1328 18 27H15.75C15.75 26.0742 15.5742 25.2012 15.2227 24.3809C14.8711 23.5605 14.3848 22.8457 13.7637 22.2363C13.1426 21.627 12.4277 21.1465 11.6191 20.7949C10.8105 20.4434 9.9375 20.2617 9 20.25C8.07422 20.25 7.20117 20.4258 6.38086 20.7773C5.56055 21.1289 4.8457 21.6152 4.23633 22.2363C3.62695 22.8574 3.14648 23.5723 2.79492 24.3809C2.44336 25.1895 2.26172 26.0625 2.25 27H0C0 26.1445 0.117188 25.3184 0.351562 24.5215C0.585938 23.7246 0.919922 22.9746 1.35352 22.2715C1.78711 21.5684 2.30859 20.9355 2.91797 20.373C3.52734 19.8105 4.21875 19.3301 4.99219 18.9316C4.13672 18.2988 3.46875 17.502 2.98828 16.541C2.50781 15.5801 2.26172 14.5664 2.25 13.5C2.25 12.5742 2.42578 11.7012 2.77734 10.8809C3.12891 10.0605 3.61523 9.3457 4.23633 8.73633C4.85742 8.12695 5.57227 7.64648 6.38086 7.29492C7.18945 6.94336 8.0625 6.76172 9 6.75C9.92578 6.75 10.7988 6.92578 11.6191 7.27734C12.4395 7.62891 13.1543 8.11523 13.7637 8.73633C14.373 9.35742 14.8535 10.0723 15.2051 10.8809C15.5566 11.6895 15.7383 12.5625 15.75 13.5C15.75 14.5664 15.5098 15.5801 15.0293 16.541C14.5488 17.502 13.875 18.2988 13.0078 18.9316ZM4.5 13.5C4.5 14.1211 4.61719 14.7012 4.85156 15.2402C5.08594 15.7793 5.4082 16.2539 5.81836 16.6641C6.22852 17.0742 6.70312 17.3965 7.24219 17.6309C7.78125 17.8652 8.36719 17.9883 9 18C9.60938 18 10.1895 17.8828 10.7402 17.6484C11.291 17.4141 11.7656 17.0918 12.1641 16.6816C12.5625 16.2715 12.8848 15.7969 13.1309 15.2578C13.377 14.7188 13.5 14.1328 13.5 13.5C13.5 12.8906 13.3828 12.3105 13.1484 11.7598C12.9141 11.209 12.5918 10.7344 12.1816 10.3359C11.7715 9.9375 11.291 9.61523 10.7402 9.36914C10.1895 9.12305 9.60938 9 9 9C8.37891 9 7.79883 9.11719 7.25977 9.35156C6.7207 9.58594 6.24609 9.9082 5.83594 10.3184C5.42578 10.7285 5.10352 11.209 4.86914 11.7598C4.63477 12.3105 4.51172 12.8906 4.5 13.5ZM36 6.75V9H20.25V6.75H36ZM20.25 15.75H36V18H20.25V15.75ZM20.25 24.75H36V27H20.25V24.75Z" fill="white"/>
</svg>
