<svg width="33" height="24" viewBox="0 0 33 24" fill="none" xmlns="http://www.w3.org/2000/svg">
<g clip-path="url(#clip0_613_34)">
<path d="M2.8435 5.482L15.0466 14.358C15.4076 14.6207 15.8898 14.7767 16.3999 14.7957C16.9099 14.8148 17.4115 14.6955 17.8076 14.461L17.9644 14.358L30.1593 5.488C30.1991 5.598 30.2253 5.71 30.239 5.825L30.25 6V18C30.2502 18.5046 29.9882 18.9906 29.5164 19.3605C29.0447 19.7305 28.3981 19.9572 27.7062 19.995L27.5 20H5.5C4.80621 20.0002 4.13797 19.8096 3.62925 19.4665C3.12052 19.1234 2.80891 18.6532 2.75688 18.15L2.75 18V6C2.75 5.88 2.76375 5.764 2.79125 5.65L2.8435 5.482ZM27.5 4C27.6664 4 27.83 4.01 27.9881 4.031L28.2219 4.07L16.5069 12.59L4.78775 4.068C4.939 4.038 5.09575 4.018 5.25525 4.008L5.5 4H27.5Z" fill="white"/>
</g>
<defs>
<clipPath id="clip0_613_34">
<rect width="33" height="24" fill="white"/>
</clipPath>
</defs>
</svg>
